<?xml version="1.0" encoding="UTF-8" standalone="no"?>
<!DOCTYPE svg PUBLIC "-//W3C//DTD SVG 1.1//EN" "http://www.w3.org/Graphics/SVG/1.1/DTD/svg11.dtd">
<svg width="100%" height="100%" viewBox="0 0 102 102" version="1.1" xmlns="http://www.w3.org/2000/svg" xmlns:xlink="http://www.w3.org/1999/xlink" xml:space="preserve" xmlns:serif="http://www.serif.com/" style="fill-rule:evenodd;clip-rule:evenodd;stroke-linejoin:round;stroke-miterlimit:2;">
    <g transform="matrix(1,0,0,1,-1357,0)">
        <g id="loading" transform="matrix(1,0,0,1,-0.303695,18.0556)">
            <rect x="1357.3" y="-18.056" width="101.862" height="101.862" style="fill:none;"/>
            <g transform="matrix(1.32979,-0.191166,0.191166,1.32979,-465.977,259.634)">
                <g transform="matrix(0.965926,0.258819,-0.258819,0.965926,69.3004,-360.88)">
                    <path d="M1376.03,4.56C1377.58,1.972 1380.42,0.244 1383.65,0.244L1413.63,0.244C1418.55,0.244 1422.55,4.242 1422.55,9.166L1422.55,56.264C1422.55,61.189 1418.55,65.187 1413.63,65.187C1413.63,65.187 1383.65,65.187 1383.65,65.187C1383.08,65.187 1382.52,65.133 1381.98,65.024L1400.03,60.187L1413.63,60.187C1415.79,60.187 1417.55,58.429 1417.55,56.264L1417.55,9.166C1417.55,7.001 1415.79,5.244 1413.63,5.244L1397.57,5.244C1396.59,1.924 1393.13,-0.023 1389.77,0.878L1376.03,4.56Z" style="fill:white;"/>
                    <path d="M1403.69,28.033L1410.69,28.153C1411.46,28.166 1412.13,28.667 1412.37,29.399C1412.61,30.132 1412.36,30.935 1411.74,31.398L1405.8,35.875L1403.69,28.033Z" style="fill:rgb(144,218,79);"/>
                </g>
                <g transform="matrix(1,0,0,1,-2.13981,-3.07742)">
                    <g transform="matrix(1.22081,-1.11022e-16,2.77556e-17,1.09208,-311.627,-23.3064)">
                        <path d="M1420.51,29.735C1420.51,25.225 1417.23,21.564 1413.2,21.564L1388.65,21.564C1384.61,21.564 1381.34,25.225 1381.34,29.735L1381.34,72.862C1381.34,77.371 1384.61,81.032 1388.65,81.032C1388.65,81.032 1413.2,81.032 1413.2,81.032C1417.23,81.032 1420.51,77.371 1420.51,72.862L1420.51,29.735ZM1416.41,29.735L1416.41,72.862C1416.41,74.844 1414.97,76.454 1413.2,76.454L1388.65,76.454C1386.88,76.454 1385.43,74.844 1385.43,72.862L1385.43,29.735C1385.43,27.752 1386.88,26.143 1388.65,26.143C1388.65,26.143 1413.2,26.143 1413.2,26.143C1414.97,26.143 1416.41,27.752 1416.41,29.735Z" style="fill:white;"/>
                    </g>
                    <g transform="matrix(1.20367,0,0,1.20367,-281.601,-35.6434)">
                        <path d="M1394.52,46.761C1394.73,46.156 1395.3,45.75 1395.94,45.75C1396.58,45.75 1397.15,46.156 1397.36,46.761L1399.46,52.891L1405.94,53.002C1406.58,53.013 1407.15,53.429 1407.34,54.037C1407.54,54.646 1407.33,55.313 1406.82,55.698L1401.64,59.597L1403.54,65.796C1403.73,66.408 1403.51,67.071 1402.99,67.447C1402.47,67.823 1401.77,67.829 1401.25,67.462L1395.94,63.742L1390.63,67.462C1390.1,67.829 1389.4,67.823 1388.89,67.447C1388.37,67.071 1388.15,66.408 1388.34,65.796L1390.23,59.597L1385.05,55.698C1384.54,55.313 1384.33,54.646 1384.53,54.037C1384.73,53.429 1385.29,53.013 1385.93,53.002L1392.41,52.891L1394.52,46.761Z" style="fill:rgb(144,218,79);"/>
                    </g>
                </g>
            </g>
        </g>
    </g>
</svg>
